<?xml version="1.0" standalone="no"?>
<!DOCTYPE svg PUBLIC "-//W3C//DTD SVG 20010904//EN"
 "http://www.w3.org/TR/2001/REC-SVG-20010904/DTD/svg10.dtd">
<svg version="1.0" xmlns="http://www.w3.org/2000/svg"
 width="20.000000pt" height="20.000000pt" viewBox="0 0 20.000000 20.000000"
 preserveAspectRatio="xMidYMid meet">
<metadata>
Created by potrace 1.16, written by Peter Selinger 2001-2019
</metadata>
<g transform="translate(0.000000,20.000000) scale(0.008889,-0.008889)"
fill="#000000" stroke="none">
<path d="M765 1923 c-177 -39 -307 -93 -382 -158 -118 -101 -266 -590 -289
-951 l-7 -110 44 -55 c52 -64 152 -133 246 -171 89 -36 215 -68 270 -68 43 0
44 1 101 80 l57 80 50 -6 c28 -3 79 -10 115 -15 83 -11 227 -11 310 0 36 5 88
12 115 15 l50 6 57 -80 c57 -79 59 -80 100 -80 105 1 295 66 405 140 37 25 87
69 111 99 l44 55 -7 110 c-22 363 -170 850 -288 951 -87 76 -281 149 -427 162
-73 6 -80 2 -99 -57 l-11 -35 -207 1 -207 1 -9 34 c-5 19 -13 40 -19 47 -10
11 -80 15 -123 5z m62 -100 c2 -6 -35 -23 -82 -38 -127 -41 -249 -105 -253
-133 -4 -26 14 -52 35 -52 8 0 56 20 107 45 293 143 689 143 982 0 51 -25 99
-45 107 -45 21 0 39 26 35 52 -4 28 -135 97 -256 134 -51 16 -82 30 -79 37 10
28 171 -10 293 -68 80 -39 95 -50 124 -95 98 -153 206 -551 226 -836 l7 -91
-37 -41 c-47 -52 -124 -103 -203 -135 -74 -30 -205 -62 -224 -55 -8 3 -29 26
-47 52 -30 42 -32 47 -15 52 52 18 187 86 228 114 37 26 46 37 43 57 -5 39
-32 52 -66 31 -222 -137 -408 -185 -677 -174 -215 8 -400 59 -530 146 -64 42
-84 47 -103 28 -25 -25 -13 -56 34 -89 40 -27 176 -95 227 -113 17 -5 16 -11
-16 -54 -19 -26 -45 -48 -57 -50 -31 -5 -195 44 -269 81 -35 17 -91 57 -124
88 l-60 57 7 94 c20 286 128 685 225 837 46 71 171 134 331 166 71 14 82 14
87 -2z"/>
<path d="M754 1286 c-65 -29 -124 -126 -124 -206 0 -81 59 -178 127 -206 47
-20 117 -17 163 6 147 75 147 325 0 400 -45 23 -120 26 -166 6z m149 -104
c106 -101 -8 -297 -128 -218 -78 51 -69 196 15 239 42 21 75 15 113 -21z"/>
<path d="M1328 1280 c-145 -77 -144 -326 2 -400 46 -23 116 -26 163 -6 68 28
127 125 127 206 0 81 -59 178 -127 206 -46 20 -121 17 -165 -6z m150 -86 c69
-45 66 -185 -3 -230 -89 -58 -196 42 -166 154 10 37 50 83 81 95 20 8 60 -1
88 -19z"/>
</g>
</svg>
