<?xml version="1.0" standalone="no"?>
<!DOCTYPE svg PUBLIC "-//W3C//DTD SVG 20010904//EN"
 "http://www.w3.org/TR/2001/REC-SVG-20010904/DTD/svg10.dtd">
<svg version="1.0" xmlns="http://www.w3.org/2000/svg"
 width="20.000000pt" height="20.000000pt" viewBox="0 0 24.000000 24.000000"
 preserveAspectRatio="xMidYMid meet">
<metadata>
Created by potrace 1.16, written by Peter Selinger 2001-2019
</metadata>
<g transform="translate(0.000000,24.000000) scale(0.004687,-0.004687)"
fill="#000000" stroke="none">
<path d="M3992 4696 c-91 -22 -197 -82 -265 -149 -35 -34 -70 -73 -79 -87
l-15 -25 -416 100 c-229 54 -418 97 -420 94 -2 -2 -88 -247 -192 -544 -103
-297 -191 -547 -196 -556 -6 -12 -31 -18 -106 -23 -352 -25 -729 -129 -1031
-286 l-114 -59 -76 39 c-386 197 -859 17 -1025 -390 -82 -199 -77 -446 13
-637 56 -120 159 -244 250 -303 46 -30 49 -33 60 -96 64 -371 331 -727 732
-976 195 -121 472 -236 718 -298 674 -169 1436 -97 2013 191 508 254 839 638
922 1072 l15 77 103 103 c90 88 109 115 150 197 64 129 87 225 87 364 0 62 -7
140 -15 176 -113 495 -640 745 -1078 514 l-48 -26 -99 51 c-313 161 -687 263
-1067 290 -57 4 -105 10 -109 13 -5 6 259 774 270 786 3 2 133 -26 289 -63
l284 -68 -4 -46 c-6 -65 21 -183 62 -270 27 -55 54 -93 113 -151 121 -121 240
-170 412 -170 172 0 291 49 412 170 186 185 228 443 112 680 -72 145 -226 267
-386 305 -76 18 -204 18 -276 1z m272 -287 c27 -13 67 -42 89 -64 155 -154
110 -403 -93 -511 -27 -15 -56 -19 -130 -19 -86 0 -100 3 -148 29 -216 120
-224 417 -15 549 59 37 99 47 179 43 50 -2 84 -10 118 -27z m-1404 -1174 c682
-74 1229 -355 1499 -770 263 -405 183 -888 -207 -1245 -222 -203 -545 -369
-886 -456 -686 -174 -1480 -72 -2010 258 -271 169 -465 383 -561 619 -33 83
-65 239 -65 322 0 249 126 516 342 723 309 297 769 491 1298 549 160 17 429
18 590 0z m-2002 -238 l44 -13 -68 -59 c-140 -123 -266 -286 -347 -451 -45
-90 -97 -237 -97 -277 -1 -21 -2 -20 -26 8 -59 71 -95 188 -95 304 0 92 16
152 65 249 52 102 194 215 302 241 58 14 173 12 222 -2z m3708 -32 c253 -124
357 -429 235 -687 -33 -69 -47 -77 -56 -31 -12 65 -72 213 -121 297 -83 142
-200 284 -332 399 l-53 46 33 10 c18 6 75 9 126 7 83 -3 100 -7 168 -41z"/>
<path d="M1743 2570 c-111 -16 -204 -85 -255 -188 -30 -60 -33 -75 -33 -157 0
-76 4 -98 26 -146 57 -121 165 -191 304 -197 104 -5 174 20 248 88 76 70 110
147 110 255 1 70 -3 89 -30 145 -35 75 -88 132 -154 165 -40 21 -66 28 -144
39 -11 2 -43 0 -72 -4z"/>
<path d="M3222 2568 c-282 -44 -387 -402 -175 -599 70 -66 145 -92 248 -87
184 8 320 138 333 318 16 228 -178 404 -406 368z"/>
<path d="M1723 1460 c-40 -24 -53 -48 -55 -102 -3 -62 19 -96 92 -146 149
-100 346 -177 549 -213 98 -18 141 -20 281 -16 235 8 395 48 593 148 194 98
247 144 247 217 0 80 -55 132 -140 132 -33 0 -60 -10 -117 -45 -213 -129 -411
-188 -633 -188 -227 0 -421 59 -631 191 -77 49 -132 55 -186 22z"/>
</g>
</svg>
